HIERARCHY
ROOT Hips
{
     OFFSET 1.88212 96.90440 -13.34250
     CHANNELS 6 Xposition Yposition Zposition Zrotation Xrotation Yrotation
     JOINT Spine
     {
          OFFSET 0.00000 11.89050 0.00000
          CHANNELS 3 Zrotation Xrotation Yrotation
          JOINT Spine1
          {
               OFFSET -0.00000 25.65740 0.12766
               CHANNELS 3 Zrotation Xrotation Yrotation
               JOINT HEad
               {
                    OFFSET 0.00000 8.73416 0.01134
                    CHANNELS 3 Zrotation Xrotation Yrotation
                    End Site
                    {
                         OFFSET -0.29000 12.77420 2.51395
                    }
               }
               JOINT LeftShoulder1
               {
                    OFFSET 8.99000 -0.36225 -0.22000
                    CHANNELS 3 Zrotation Xrotation Yrotation
                    JOINT LeftArm
                    {
                         OFFSET 10.28270 -0.00338 0.32212
                         CHANNELS 3 Zrotation Xrotation Yrotation
                         JOINT LeftForeArm
                         {
                              OFFSET 32.76690 0.09914 -1.42434
                              CHANNELS 3 Zrotation Xrotation Yrotation
                              JOINT LeftHand
                              {
                                   OFFSET 27.56430 0.08536 1.02216
                                   CHANNELS 3 Zrotation Xrotation Yrotation
                                   End Site
                                   {
                                        OFFSET 16.74430 -0.60000 1.50291
                                   }
                              }
                         }
                    }
               }
               JOINT RightShoulder
               {
                    OFFSET -8.99000 -0.36225 -0.22000
                    CHANNELS 3 Zrotation Xrotation Yrotation
                    JOINT RightArm
                    {
                         OFFSET -10.28270 -0.00338 0.32212
                         CHANNELS 3 Zrotation Xrotation Yrotation
                         JOINT RightForeArm
                         {
                              OFFSET -32.89710 0.09914 -1.42434
                              CHANNELS 3 Zrotation Xrotation Yrotation
                              JOINT RightHand
                              {
                                   OFFSET -27.49210 0.08536 1.02216
                                   CHANNELS 3 Zrotation Xrotation Yrotation
                                   End Site
                                   {
                                        OFFSET -16.63120 -0.60000 1.50291
                                   }
                              }
                         }
                    }
               }
          }
     }
     JOINT LeftUpLeg
     {
          OFFSET 8.94580 -8.66707 0.10165
          CHANNELS 3 Zrotation Xrotation Yrotation
          JOINT LeftLeg
          {
               OFFSET 0.00000 -44.42270 1.37270
               CHANNELS 3 Zrotation Xrotation Yrotation
               JOINT LeftFoot
               {
                    OFFSET -0.25355 -42.09240 -1.46059
                    CHANNELS 3 Zrotation Xrotation Yrotation
                    JOINT LeftToes
                    {
                         OFFSET -0.04000 -4.41509 8.49910
                         CHANNELS 3 Zrotation Xrotation Yrotation
                         End Site
                         {
                              OFFSET 0.08000 -0.04745 9.77979
                         }
                    }
               }
          }
     }
     JOINT RightUpLeg
     {
          OFFSET -8.94580 -8.66707 0.10165
          CHANNELS 3 Zrotation Xrotation Yrotation
          JOINT RightLeg
          {
               OFFSET 0.00000 -44.42270 1.37270
               CHANNELS 3 Zrotation Xrotation Yrotation
               JOINT RightFoot
               {
                    OFFSET 0.25355 -42.09240 -1.46059
                    CHANNELS 3 Zrotation Xrotation Yrotation
                    JOINT RightToes
                    {
                         OFFSET 0.04000 -4.41509 8.49910
                         CHANNELS 3 Zrotation Xrotation Yrotation
                         End Site
                         {
                              OFFSET -0.08000 -0.13745 9.77979
                         }
                    }
               }
          }
     }
}
MOTION
Frames: 15
Frame Time: 0.01667
-30.21377 96.21065 -10.59374 7.43258 1.02768 103.30515 -5.29702 18.37959 -8.73962 0.01438 -0.01478 -0.00427 7.16257 -2.99251 23.47127 -1.00654 13.08377 0.86784 -167.42078 -25.87546 -144.95801 -128.84216 70.76945 2.96903 26.06198 7.40637 -9.78854 7.54168 13.59254 -3.27674 78.68591 3.09595 87.50504 -8.62083 24.43182 103.94063 12.52160 8.79827 2.01814 10.67677 3.06181 -28.41527 -12.71930 -4.92691 93.10811 -4.55594 0.07754 -0.04268 6.78514 36.45711 3.42767 -13.61351 0.49746 4.27368 30.68996 -1.24239 -30.77792 -26.90388 0.00082 0.00187 4.30886 -18.88680 21.54810 
-30.66717 96.92004 -10.07556 9.76855 7.88472 101.64191 -12.33233 23.21284 -7.28535 0.00988 -0.01170 -0.00263 3.36789 -4.24137 22.39968 -1.51330 11.28199 1.68631 -163.01894 -30.18001 -142.83502 -103.68507 71.63135 -17.21008 23.61288 6.79063 -14.00226 6.64216 11.93273 -2.29678 74.96454 5.36396 88.35966 -8.68809 24.39352 104.36565 25.84973 6.48855 10.37375 5.71459 2.81802 -25.58313 -18.40591 -0.02458 96.93128 -5.94483 0.07609 -0.01847 10.43271 37.40847 -0.85394 -19.76333 3.53596 7.13749 30.16197 -1.40399 -31.44423 -28.01285 -0.00047 0.00259 5.67331 -18.87057 21.69188 
-31.21795 97.47366 -9.43519 12.88873 15.67187 99.19312 -20.81255 27.53810 -4.60094 0.00548 -0.00499 -0.00114 -1.80089 -4.24646 20.52263 -1.87023 10.21771 2.40763 -155.74365 -36.16330 -138.96759 -74.91325 69.56692 -43.14590 22.06834 6.94329 -15.84766 5.88495 10.96974 -1.32142 72.30650 6.83308 88.80493 -8.61427 23.87238 104.31456 11.82160 9.31666 0.66044 -0.10716 2.58336 -21.24426 -24.37841 7.36882 98.12290 -9.03551 0.07571 -0.03862 11.30444 33.27230 -5.59634 -27.22743 6.58114 10.89923 29.79964 -1.47032 -32.12509 -29.06254 -0.00145 0.00262 6.96732 -18.63898 21.78579 
-31.78652 97.89774 -8.73208 17.19682 23.94478 95.50736 -30.52938 31.15899 -0.40095 0.00583 0.00169 0.00088 -8.15384 -2.87341 18.08974 -2.09820 9.75261 3.18230 -145.59633 -42.65730 -132.74506 -50.08573 62.42072 -61.47653 23.32895 14.48043 -3.23364 5.17952 10.55594 -0.29741 69.04275 11.73200 89.48804 -12.04013 22.06346 103.33885 32.23109 2.51880 20.34464 -6.19046 2.17192 -15.25422 -31.35993 15.92564 95.58086 -13.84614 0.02686 -0.20529 10.40566 30.16348 -3.71405 -35.79804 9.40071 15.80966 29.65092 -1.45168 -32.77027 -30.07283 -0.00230 0.00155 8.23407 -18.41869 21.78666 
-32.30283 98.28770 -8.02866 21.67262 30.66297 91.50349 -38.75424 33.22002 3.70885 0.00644 0.00944 0.00436 -14.17300 -0.93442 16.03800 -2.25131 9.73561 4.02860 -132.10596 -48.60601 -123.23537 -33.68435 51.48850 -69.25616 18.74035 3.14641 -23.37310 4.31685 10.53059 0.96277 66.46328 18.13776 90.69141 -16.85010 20.27239 101.06185 21.03687 -1.32585 15.84072 -10.38267 0.28928 -8.52480 -37.84255 25.86282 90.53274 -19.72736 -0.14424 -0.26012 -1.14230 21.60548 -9.10820 -43.39948 11.18731 20.48282 29.55977 -1.27819 -33.34739 -30.01003 0.00056 -0.00032 8.55442 -18.27682 21.67225 
-32.73443 98.70730 -7.34118 26.26061 35.98541 87.26664 -45.25513 34.14944 7.36047 0.00144 0.01373 0.00545 -19.85714 1.38972 14.45469 -2.39062 10.06701 4.79458 -114.83547 -52.81065 -109.76072 -22.43165 37.89163 -70.27571 18.30851 14.88372 -5.03873 3.54457 10.81525 2.16569 64.60844 21.87325 91.19353 -19.20464 19.34599 99.38894 28.26601 3.25625 17.16024 -12.60944 -2.75999 -1.25397 -42.18768 36.59483 83.52190 -29.70167 -0.49622 -0.37540 4.78412 19.13203 2.07359 -49.95024 12.24670 24.76879 29.57301 -1.03012 -33.84306 -29.93460 0.00120 -0.00021 8.81895 -18.28853 21.43065 
-33.08359 99.12904 -6.63700 30.87626 40.08377 82.92268 -50.00537 34.33501 10.37464 -0.00294 0.01716 0.00556 -25.21473 3.94123 13.36863 -2.78039 10.66814 5.49538 -94.53962 -53.98518 -92.86789 -14.02392 22.46853 -67.60530 14.35670 7.72450 -24.99233 2.62127 11.34636 3.25671 63.48647 24.09329 91.24412 -15.07810 20.21921 97.20999 21.07316 5.48537 12.02851 -12.87290 -6.61959 6.46546 -42.25140 46.95535 74.94239 -45.91534 -0.96382 -0.38348 5.87201 4.24188 -0.91735 -55.40556 12.84854 28.58055 29.60281 -0.70583 -34.27153 -29.83414 0.00227 0.00068 8.96987 -18.43124 21.08555 
-33.38029 99.41999 -5.87210 35.40699 43.15547 78.63102 -53.20601 34.07527 12.71183 -0.00918 0.02122 0.00379 -30.23032 6.58162 12.79061 -3.58401 11.50038 5.79332 -74.37629 -51.30006 -75.51144 -7.46244 5.76794 -61.95972 8.21071 9.32043 -5.58386 1.48343 12.12868 4.10992 62.87613 25.67511 90.93014 -12.47885 20.92622 95.58814 25.76624 10.27419 10.65169 -11.02878 -10.81511 14.61427 -39.41462 53.02806 67.25531 -31.08327 0.59615 -0.16134 -20.15537 -1.92189 0.17933 -59.77920 13.16755 31.86685 29.61827 -0.24542 -34.67941 -29.70356 0.00307 0.00183 8.95075 -18.70842 20.68072 
-33.65888 99.53354 -5.05166 39.71398 45.37294 74.57733 -55.11541 33.57883 14.40304 -0.01597 0.02521 0.00217 -34.88858 9.20178 12.70124 -4.75169 12.53563 5.83584 -57.84225 -44.80518 -60.65561 -2.37902 -11.71990 -54.68539 2.78786 3.52915 -32.48636 0.09396 13.14759 4.81148 62.65221 26.87658 90.37243 -10.85781 21.59883 94.30080 21.63286 10.69230 8.57800 -6.91650 -14.85225 23.16299 -36.23545 56.48710 60.48987 -30.15737 0.03866 -0.07658 -21.99419 -10.95160 0.09922 -63.11157 13.31884 34.60510 29.62814 0.38973 -35.11559 -29.54964 0.00337 0.00284 8.73869 -19.12682 20.27631 
-33.87263 99.41431 -4.25906 43.65235 46.85390 70.94144 -55.92464 32.99782 15.50247 -0.02060 0.02894 0.00161 -39.17783 11.70543 13.05435 -5.85770 13.67485 5.54106 -46.39298 -35.63170 -48.94787 0.91806 -26.90654 -51.75226 0.41283 9.55910 -6.56510 -1.21781 14.29342 5.46070 62.52016 27.86334 89.45716 -9.94986 22.40604 93.33752 24.15587 12.71977 8.35045 -0.50822 -18.27391 31.91761 -31.51258 58.89174 53.02178 -30.03620 -0.04575 -0.02334 -12.48343 -15.22598 -3.01192 -65.52576 13.33639 36.82358 29.84296 1.23227 -35.57363 -29.12795 0.00370 0.00733 7.97578 -19.67395 19.86114 
-33.84167 99.09439 -3.66472 47.08974 47.65795 67.82878 -55.65144 32.39002 16.08349 -0.01908 0.02862 0.00339 -41.68864 14.01205 13.75301 -6.29810 14.54665 5.08443 -39.44299 -25.26789 -38.81878 1.08144 -40.47525 -53.60804 -2.26133 4.24597 -26.16223 -1.99823 15.15923 6.19897 62.37036 28.68471 87.98433 -9.42447 23.16090 92.55635 20.73146 12.96316 8.23203 7.96051 -20.43294 40.25220 -26.80422 59.73159 45.81094 -27.62687 0.02709 -0.19453 -7.30386 -18.91666 -4.03766 -67.15731 13.31703 38.59451 30.12986 2.29144 -36.03825 -28.58345 0.00220 0.00591 7.08587 -20.40958 19.50253 
-33.45345 98.72487 -3.36975 49.49054 46.02157 65.87253 -52.66987 32.23167 16.50554 -0.01972 0.02374 0.00451 -42.61276 15.97583 14.54014 2.58514 7.82344 3.37894 -44.39662 -11.24807 -28.20727 0.31562 -49.12708 -55.48428 -0.39483 8.32419 -14.82298 6.13618 9.87323 9.66449 59.63289 28.78000 77.02594 -8.89815 23.82850 91.71323 21.50755 14.44556 9.02556 19.34543 -20.77480 46.93978 -23.42946 58.71125 39.26907 -25.87069 0.02193 -0.19072 -6.26947 -19.58783 -9.65265 -66.42152 13.76622 40.34156 30.55622 3.44949 -36.39878 -28.84136 -0.00042 0.00061 6.92716 -21.33567 19.12949 
-32.64157 98.41634 -3.48542 50.83527 42.46210 64.73370 -46.00319 32.43699 16.52255 0.08393 0.00427 0.03976 -43.48773 18.03051 15.02932 9.26641 1.60191 3.82704 -51.19551 -3.94208 -19.98231 -3.79563 -50.69659 -57.93898 13.94141 9.63624 -40.38004 13.72968 5.20692 12.12107 59.26296 30.14436 68.88127 -7.66107 25.23435 91.87697 8.51221 14.27272 23.00118 32.66054 -19.95201 51.62576 -21.90996 56.41758 33.91640 -24.52714 0.03190 -0.16579 -7.21291 -20.50847 -13.15947 -63.91382 14.54968 42.17917 30.95647 4.80743 -36.61914 -28.86862 0.00065 -0.00041 6.68485 -22.52316 18.74012 
-31.36685 98.18960 -4.10191 51.86948 39.21483 63.78628 -37.83293 32.50863 15.65900 0.08428 -0.00758 0.03741 -44.16951 20.07004 15.31925 4.93914 3.47653 2.61973 -49.30128 -8.43526 -17.77144 -4.52456 -50.86452 -59.26997 0.31425 13.98570 -25.35487 11.12297 6.97787 11.19445 63.02752 30.75519 72.02910 -6.12626 27.09332 92.47281 19.38335 13.34715 4.59967 45.45121 -19.08633 54.39688 -21.86126 53.26155 29.69192 -24.67908 -0.02016 -0.02878 -6.79488 -19.77822 -17.34406 -61.96078 15.48456 43.77698 31.26568 6.28748 -36.59545 -28.55756 0.00003 0.00323 6.43040 -24.04590 18.30708 
-29.90241 97.88862 -4.90640 52.68374 36.24765 62.95255 -28.52905 32.37514 14.05113 0.07123 -0.00204 0.03184 -44.60894 22.01726 15.29150 -0.23173 5.69638 1.34105 -48.19910 -15.94649 -15.73321 -6.31072 -46.01723 -59.69886 4.11632 11.14932 -31.42111 7.35304 8.95683 10.02401 65.53139 31.29566 73.14291 -5.09323 28.61245 92.29655 17.24045 11.89542 8.84499 57.44243 -18.54674 55.38493 -23.09836 49.53476 26.47656 -25.43840 -0.05801 0.03378 -7.66374 -18.54497 -20.84855 -60.51852 16.46369 45.19994 31.48883 7.84235 -36.37310 -27.99588 -0.00032 0.00745 6.14731 -25.70073 17.86851 
